<svg width="50" height="51" viewBox="0 0 50 51" fill="none" xmlns="http://www.w3.org/2000/svg">
<path d="M25 0.404175C11.1875 0.404175 0 11.8746 0 26.0365C0 37.3788 7.15625 46.9589 17.0937 50.3552C18.3437 50.5795 18.8125 49.8105 18.8125 49.1377C18.8125 48.5289 18.7813 46.5104 18.7813 44.3636C12.5 45.5491 10.875 42.7937 10.375 41.3518C10.0937 40.6149 8.875 38.34 7.8125 37.7313C6.9375 37.2507 5.6875 36.0652 7.78125 36.0331C9.75 36.0011 11.1563 37.8915 11.625 38.6604C13.875 42.5373 17.4688 41.448 18.9063 40.7751C19.125 39.109 19.7812 37.9876 20.5 37.3468C14.9375 36.706 9.125 34.4952 9.125 24.6908C9.125 21.9033 10.0938 19.5964 11.6875 17.8021C11.4375 17.1613 10.5625 14.534 11.9375 11.0096C11.9375 11.0096 14.0313 10.3367 18.8125 13.6369C20.8125 13.0601 22.9375 12.7718 25.0625 12.7718C27.1875 12.7718 29.3125 13.0601 31.3125 13.6369C36.0938 10.3047 38.1875 11.0096 38.1875 11.0096C39.5625 14.534 38.6875 17.1613 38.4375 17.8021C40.0313 19.5964 41 21.8713 41 24.6908C41 34.5272 35.1563 36.706 29.5938 37.3468C30.5 38.1478 31.2813 39.6857 31.2813 42.0888C31.2813 45.5171 31.25 48.2726 31.25 49.1377C31.25 49.8105 31.7188 50.6115 32.9688 50.3552C37.932 48.6378 42.2448 45.3676 45.3001 41.005C48.3553 36.6425 49.9991 31.4073 50 26.0365C50 11.8746 38.8125 0.404175 25 0.404175Z" fill="#FCFCFC"/>
</svg>
