<svg width="12" height="17" viewBox="0 0 12 17" fill="none" xmlns="http://www.w3.org/2000/svg">
<path d="M6 16.3054C6 16.3054 12 10.6194 12 6.30542C12 4.71412 11.3679 3.188 10.2426 2.06278C9.11742 0.937561 7.5913 0.30542 6 0.30542C4.4087 0.30542 2.88258 0.937561 1.75736 2.06278C0.632141 3.188 2.37122e-08 4.71412 0 6.30542C0 10.6194 6 16.3054 6 16.3054ZM6 9.30542C5.20435 9.30542 4.44129 8.98935 3.87868 8.42674C3.31607 7.86413 3 7.10107 3 6.30542C3 5.50977 3.31607 4.74671 3.87868 4.1841C4.44129 3.62149 5.20435 3.30542 6 3.30542C6.79565 3.30542 7.55871 3.62149 8.12132 4.1841C8.68393 4.74671 9 5.50977 9 6.30542C9 7.10107 8.68393 7.86413 8.12132 8.42674C7.55871 8.98935 6.79565 9.30542 6 9.30542Z" fill="#FCFCFC"/>
</svg>
