<svg width="40" height="28" viewBox="0 0 40 28" fill="none" xmlns="http://www.w3.org/2000/svg">
<path d="M0 14C0 12.8954 0.895431 12 2 12H38C39.1046 12 40 12.8954 40 14C40 15.1046 39.1046 16 38 16H2C0.895431 16 0 15.1046 0 14Z" fill="#262626"/>
<path d="M0 2C0 0.895431 0.895431 0 2 0H38C39.1046 0 40 0.895431 40 2C40 3.10457 39.1046 4 38 4H2C0.895431 4 0 3.10457 0 2Z" fill="#262626"/>
<path d="M0 26C0 24.8954 0.895431 24 2 24H38C39.1046 24 40 24.8954 40 26C40 27.1046 39.1046 28 38 28H2C0.895431 28 0 27.1046 0 26Z" fill="#262626"/>
</svg>
