<svg width="28" height="28" viewBox="0 0 28 28" fill="none" xmlns="http://www.w3.org/2000/svg">
<path d="M1.04163 26.0416C0.260581 25.2606 0.260581 23.9943 1.04163 23.2132L23.669 0.585787C24.4501 -0.195262 25.7164 -0.195262 26.4975 0.585786C27.2785 1.36683 27.2785 2.63316 26.4975 3.41421L3.87006 26.0416C3.08901 26.8227 1.82268 26.8227 1.04163 26.0416Z" fill="#262626"/>
<path d="M26.0416 26.598C25.2606 27.379 23.9943 27.379 23.2132 26.598L0.585787 3.97055C-0.195262 3.1895 -0.195262 1.92317 0.585786 1.14212C1.36683 0.361076 2.63316 0.361076 3.41421 1.14212L26.0416 23.7695C26.8227 24.5506 26.8227 25.8169 26.0416 26.598Z" fill="#262626"/>
</svg>
